<svg viewBox="0 0 880 300" width="880" height="300" fill="none"
     xmlns="http://www.w3.org/2000/svg" role="img"
     aria-label="Denis Maramygin — functional reactive programming">
  <defs>
    <clipPath id="panelClip"><rect x="8" y="8" width="864" height="284" rx="14"/></clipPath>
    <clipPath id="typeClip"><rect x="38" y="88" width="0" height="56">
      <animate attributeName="width" values="0.0;24.8;49.6;74.4;99.2;124.0;148.8;173.6;198.4;223.2;248.0;272.8;297.6;322.4;347.2;372.0" keyTimes="0.000;0.067;0.133;0.200;0.267;0.333;0.400;0.467;0.533;0.600;0.667;0.733;0.800;0.867;0.933;1.000"
               dur="1.8s" calcMode="discrete" fill="freeze"/>
    </rect></clipPath>
    <filter id="glow" x="-40%" y="-40%" width="180%" height="180%">
      <feGaussianBlur stdDeviation="3.2" result="b"/>
      <feMerge><feMergeNode in="b"/><feMergeNode in="SourceGraphic"/></feMerge>
    </filter>
    <linearGradient id="scan" x1="0" y1="0" x2="1" y2="0">
      <stop offset="0"   stop-color="#58a6ff" stop-opacity="0"/>
      <stop offset="0.5" stop-color="#58a6ff" stop-opacity="0.10"/>
      <stop offset="1"   stop-color="#58a6ff" stop-opacity="0"/>
    </linearGradient>
    <linearGradient id="waveFade" x1="0" y1="0" x2="0" y2="1">
      <stop offset="0" stop-color="#58a6ff"/>
      <stop offset="1" stop-color="#58a6ff" stop-opacity="0.25"/>
    </linearGradient>
    <style>
      @media (prefers-reduced-motion: reduce) { * { animation: none !important; } }
    </style>
  </defs>

  <!-- panel -->
  <rect x="0" y="0" width="880" height="300" rx="16" fill="#0d1117"/>
  <rect x="8" y="8" width="864" height="284" rx="14" fill="#0d1117"
        stroke="#30363d" stroke-width="1.5"/>

  <g clip-path="url(#panelClip)">
    <!-- faint horizontal time-grid -->
    <g stroke="#161b22" stroke-width="1">
      <line x1="8" y1="222" x2="872" y2="222"/>
    </g>

    <!-- scanning time cursor -->
    <g>
      <rect x="-160" y="8" width="160" height="284" fill="url(#scan)">
        <animate attributeName="x" values="-152;872" dur="6s" repeatCount="indefinite"/>
      </rect>
    </g>

    <!-- BEHAVIOR: continuous signal flowing through time -->
    <g clip-path="url(#panelClip)">
      <g filter="url(#glow)">
        <path d="M -40.0,184.5 L -36.0,184.9 L -32.0,186.5 L -28.0,189.3 L -24.0,193.2 L -20.0,198.1 L -16.0,203.8 L -12.0,209.9 L -8.0,216.3 L -4.0,222.6 L 0.0,228.6 L 4.0,234.1 L 8.0,238.8 L 12.0,242.7 L 16.0,245.7 L 20.0,247.8 L 24.0,248.9 L 28.0,249.3 L 32.0,248.9 L 36.0,248.1 L 40.0,246.9 L 44.0,245.4 L 48.0,243.9 L 52.0,242.4 L 56.0,241.0 L 60.0,239.8 L 64.0,238.6 L 68.0,237.4 L 72.0,236.2 L 76.0,234.8 L 80.0,233.2 L 84.0,231.1 L 88.0,228.6 L 92.0,225.5 L 96.0,221.9 L 100.0,217.8 L 104.0,213.3 L 108.0,208.5 L 112.0,203.6 L 116.0,198.8 L 120.0,194.3 L 124.0,190.5 L 128.0,187.5 L 132.0,185.4 L 136.0,184.5 L 140.0,184.9 L 144.0,186.5 L 148.0,189.3 L 152.0,193.2 L 156.0,198.1 L 160.0,203.8 L 164.0,209.9 L 168.0,216.3 L 172.0,222.6 L 176.0,228.6 L 180.0,234.1 L 184.0,238.8 L 188.0,242.7 L 192.0,245.7 L 196.0,247.8 L 200.0,248.9 L 204.0,249.3 L 208.0,248.9 L 212.0,248.1 L 216.0,246.9 L 220.0,245.4 L 224.0,243.9 L 228.0,242.4 L 232.0,241.0 L 236.0,239.8 L 240.0,238.6 L 244.0,237.4 L 248.0,236.2 L 252.0,234.8 L 256.0,233.2 L 260.0,231.1 L 264.0,228.6 L 268.0,225.5 L 272.0,221.9 L 276.0,217.8 L 280.0,213.3 L 284.0,208.5 L 288.0,203.6 L 292.0,198.8 L 296.0,194.3 L 300.0,190.5 L 304.0,187.5 L 308.0,185.4 L 312.0,184.5 L 316.0,184.9 L 320.0,186.5 L 324.0,189.3 L 328.0,193.2 L 332.0,198.1 L 336.0,203.8 L 340.0,209.9 L 344.0,216.3 L 348.0,222.6 L 352.0,228.6 L 356.0,234.1 L 360.0,238.8 L 364.0,242.7 L 368.0,245.7 L 372.0,247.8 L 376.0,248.9 L 380.0,249.3 L 384.0,248.9 L 388.0,248.1 L 392.0,246.9 L 396.0,245.4 L 400.0,243.9 L 404.0,242.4 L 408.0,241.0 L 412.0,239.8 L 416.0,238.6 L 420.0,237.4 L 424.0,236.2 L 428.0,234.8 L 432.0,233.2 L 436.0,231.1 L 440.0,228.6 L 444.0,225.5 L 448.0,221.9 L 452.0,217.8 L 456.0,213.3 L 460.0,208.5 L 464.0,203.6 L 468.0,198.8 L 472.0,194.3 L 476.0,190.5 L 480.0,187.5 L 484.0,185.4 L 488.0,184.5 L 492.0,184.9 L 496.0,186.5 L 500.0,189.3 L 504.0,193.2 L 508.0,198.1 L 512.0,203.8 L 516.0,209.9 L 520.0,216.3 L 524.0,222.6 L 528.0,228.6 L 532.0,234.1 L 536.0,238.8 L 540.0,242.7 L 544.0,245.7 L 548.0,247.8 L 552.0,248.9 L 556.0,249.3 L 560.0,248.9 L 564.0,248.1 L 568.0,246.9 L 572.0,245.4 L 576.0,243.9 L 580.0,242.4 L 584.0,241.0 L 588.0,239.8 L 592.0,238.6 L 596.0,237.4 L 600.0,236.2 L 604.0,234.8 L 608.0,233.2 L 612.0,231.1 L 616.0,228.6 L 620.0,225.5 L 624.0,221.9 L 628.0,217.8 L 632.0,213.3 L 636.0,208.5 L 640.0,203.6 L 644.0,198.8 L 648.0,194.3 L 652.0,190.5 L 656.0,187.5 L 660.0,185.4 L 664.0,184.5 L 668.0,184.9 L 672.0,186.5 L 676.0,189.3 L 680.0,193.2 L 684.0,198.1 L 688.0,203.8 L 692.0,209.9 L 696.0,216.3 L 700.0,222.6 L 704.0,228.6 L 708.0,234.1 L 712.0,238.8 L 716.0,242.7 L 720.0,245.7 L 724.0,247.8 L 728.0,248.9 L 732.0,249.3 L 736.0,248.9 L 740.0,248.1 L 744.0,246.9 L 748.0,245.4 L 752.0,243.9 L 756.0,242.4 L 760.0,241.0 L 764.0,239.8 L 768.0,238.6 L 772.0,237.4 L 776.0,236.2 L 780.0,234.8 L 784.0,233.2 L 788.0,231.1 L 792.0,228.6 L 796.0,225.5 L 800.0,221.9 L 804.0,217.8 L 808.0,213.3 L 812.0,208.5 L 816.0,203.6 L 820.0,198.8 L 824.0,194.3 L 828.0,190.5 L 832.0,187.5 L 836.0,185.4 L 840.0,184.5 L 844.0,184.9 L 848.0,186.5 L 852.0,189.3 L 856.0,193.2 L 860.0,198.1 L 864.0,203.8 L 868.0,209.9 L 872.0,216.3 L 876.0,222.6 L 880.0,228.6 L 884.0,234.1 L 888.0,238.8 L 892.0,242.7 L 896.0,245.7 L 900.0,247.8 L 904.0,248.9 L 908.0,249.3 L 912.0,248.9 L 916.0,248.1 L 920.0,246.9 L 924.0,245.4 L 928.0,243.9 L 932.0,242.4 L 936.0,241.0 L 940.0,239.8 L 944.0,238.6 L 948.0,237.4 L 952.0,236.2 L 956.0,234.8 L 960.0,233.2 L 964.0,231.1 L 968.0,228.6 L 972.0,225.5 L 976.0,221.9 L 980.0,217.8 L 984.0,213.3 L 988.0,208.5 L 992.0,203.6 L 996.0,198.8 L 1000.0,194.3 L 1004.0,190.5 L 1008.0,187.5 L 1012.0,185.4 L 1016.0,184.5 L 1020.0,184.9 L 1024.0,186.5 L 1028.0,189.3 L 1032.0,193.2 L 1036.0,198.1 L 1040.0,203.8 L 1044.0,209.9 L 1048.0,216.3 L 1052.0,222.6 L 1056.0,228.6 L 1060.0,234.1 L 1064.0,238.8 L 1068.0,242.7 L 1072.0,245.7 L 1076.0,247.8 L 1080.0,248.9 L 1084.0,249.3 L 1088.0,248.9 L 1092.0,248.1 L 1096.0,246.9 L 1100.0,245.4 L 1104.0,243.9 L 1108.0,242.4 L 1112.0,241.0 L 1116.0,239.8 L 1120.0,238.6 L 1124.0,237.4 L 1128.0,236.2 L 1132.0,234.8 L 1136.0,233.2 L 1140.0,231.1 L 1144.0,228.6 L 1148.0,225.5 L 1152.0,221.9 L 1156.0,217.8 L 1160.0,213.3 L 1164.0,208.5 L 1168.0,203.6 L 1172.0,198.8 L 1176.0,194.3 L 1180.0,190.5 L 1184.0,187.5 L 1188.0,185.4 L 1192.0,184.5 L 1196.0,184.9 L 1200.0,186.5 L 1204.0,189.3 L 1208.0,193.2 L 1212.0,198.1 L 1216.0,203.8 L 1220.0,209.9 L 1224.0,216.3 L 1228.0,222.6 L 1232.0,228.6" stroke="url(#waveFade)" stroke-width="2.4" fill="none"
              stroke-linecap="round">
          <animateTransform attributeName="transform" type="translate"
             values="0 0;-528.0 0" dur="7s" repeatCount="indefinite"/>
        </path>
      </g>
    </g>

    <!-- EVENTS: discrete pulses on the stream -->
    
    <g transform="translate(150,222)">
      <circle r="3" fill="#e3b341">
        <animate attributeName="r" values="2.5;3.5;2.5" dur="1.6s" begin="0.0s" repeatCount="indefinite"/>
      </circle>
      <circle r="3" fill="none" stroke="#e3b341" stroke-width="1.6">
        <animate attributeName="r" values="3;24" dur="1.9s" begin="0.0s" repeatCount="indefinite"/>
        <animate attributeName="opacity" values="0.9;0" dur="1.9s" begin="0.0s" repeatCount="indefinite"/>
        <animate attributeName="stroke-width" values="2;0.2" dur="1.9s" begin="0.0s" repeatCount="indefinite"/>
      </circle>
      <line x1="0" y1="-9" x2="0" y2="9" stroke="#e3b341" stroke-width="1" opacity="0.5">
        <animate attributeName="opacity" values="0.7;0.15;0.7" dur="1.9s" begin="0.0s" repeatCount="indefinite"/>
      </line>
    </g>
    <g transform="translate(300,222)">
      <circle r="3" fill="#e3b341">
        <animate attributeName="r" values="2.5;3.5;2.5" dur="1.6s" begin="1.15s" repeatCount="indefinite"/>
      </circle>
      <circle r="3" fill="none" stroke="#e3b341" stroke-width="1.6">
        <animate attributeName="r" values="3;24" dur="1.9s" begin="1.15s" repeatCount="indefinite"/>
        <animate attributeName="opacity" values="0.9;0" dur="1.9s" begin="1.15s" repeatCount="indefinite"/>
        <animate attributeName="stroke-width" values="2;0.2" dur="1.9s" begin="1.15s" repeatCount="indefinite"/>
      </circle>
      <line x1="0" y1="-9" x2="0" y2="9" stroke="#e3b341" stroke-width="1" opacity="0.5">
        <animate attributeName="opacity" values="0.7;0.15;0.7" dur="1.9s" begin="1.15s" repeatCount="indefinite"/>
      </line>
    </g>
    <g transform="translate(455,222)">
      <circle r="3" fill="#e3b341">
        <animate attributeName="r" values="2.5;3.5;2.5" dur="1.6s" begin="0.55s" repeatCount="indefinite"/>
      </circle>
      <circle r="3" fill="none" stroke="#e3b341" stroke-width="1.6">
        <animate attributeName="r" values="3;24" dur="1.9s" begin="0.55s" repeatCount="indefinite"/>
        <animate attributeName="opacity" values="0.9;0" dur="1.9s" begin="0.55s" repeatCount="indefinite"/>
        <animate attributeName="stroke-width" values="2;0.2" dur="1.9s" begin="0.55s" repeatCount="indefinite"/>
      </circle>
      <line x1="0" y1="-9" x2="0" y2="9" stroke="#e3b341" stroke-width="1" opacity="0.5">
        <animate attributeName="opacity" values="0.7;0.15;0.7" dur="1.9s" begin="0.55s" repeatCount="indefinite"/>
      </line>
    </g>
    <g transform="translate(600,222)">
      <circle r="3" fill="#e3b341">
        <animate attributeName="r" values="2.5;3.5;2.5" dur="1.6s" begin="2.0s" repeatCount="indefinite"/>
      </circle>
      <circle r="3" fill="none" stroke="#e3b341" stroke-width="1.6">
        <animate attributeName="r" values="3;24" dur="1.9s" begin="2.0s" repeatCount="indefinite"/>
        <animate attributeName="opacity" values="0.9;0" dur="1.9s" begin="2.0s" repeatCount="indefinite"/>
        <animate attributeName="stroke-width" values="2;0.2" dur="1.9s" begin="2.0s" repeatCount="indefinite"/>
      </circle>
      <line x1="0" y1="-9" x2="0" y2="9" stroke="#e3b341" stroke-width="1" opacity="0.5">
        <animate attributeName="opacity" values="0.7;0.15;0.7" dur="1.9s" begin="2.0s" repeatCount="indefinite"/>
      </line>
    </g>
    <g transform="translate(735,222)">
      <circle r="3" fill="#e3b341">
        <animate attributeName="r" values="2.5;3.5;2.5" dur="1.6s" begin="1.45s" repeatCount="indefinite"/>
      </circle>
      <circle r="3" fill="none" stroke="#e3b341" stroke-width="1.6">
        <animate attributeName="r" values="3;24" dur="1.9s" begin="1.45s" repeatCount="indefinite"/>
        <animate attributeName="opacity" values="0.9;0" dur="1.9s" begin="1.45s" repeatCount="indefinite"/>
        <animate attributeName="stroke-width" values="2;0.2" dur="1.9s" begin="1.45s" repeatCount="indefinite"/>
      </circle>
      <line x1="0" y1="-9" x2="0" y2="9" stroke="#e3b341" stroke-width="1" opacity="0.5">
        <animate attributeName="opacity" values="0.7;0.15;0.7" dur="1.9s" begin="1.45s" repeatCount="indefinite"/>
      </line>
    </g>

    <!-- window chrome -->
    <g transform="translate(26,26)">
      <circle cx="0"  cy="0" r="6" fill="#ff5f56"/>
      <circle cx="20" cy="0" r="6" fill="#ffbd2e"/>
      <circle cx="40" cy="0" r="6" fill="#27c93f"/>
      <text x="70" y="4" fill="#7d8590" font-size="13"
            font-family="ui-monospace,'SF Mono','JetBrains Mono',Menlo,monospace">
        denislibs@astana:~/continuum</text>
    </g>

    <!-- typed name -->
    <g clip-path="url(#typeClip)">
      <text x="40" y="128" fill="#e6edf3" font-size="40" font-weight="700"
            font-family="ui-monospace,'SF Mono','JetBrains Mono',Menlo,monospace"
            letter-spacing="0.5">Denis Maramygin</text>
    </g>
    <!-- cursor -->
    <g>
      <rect x="40" y="94" width="22.3" height="38"
            fill="#58a6ff" opacity="0.9">
        <animateTransform attributeName="transform" type="translate"
           values="40.0 0;64.8 0;89.6 0;114.4 0;139.2 0;164.0 0;188.8 0;213.6 0;238.4 0;263.2 0;288.0 0;312.8 0;337.6 0;362.4 0;387.2 0;412.0 0" keyTimes="0.000;0.067;0.133;0.200;0.267;0.333;0.400;0.467;0.533;0.600;0.667;0.733;0.800;0.867;0.933;1.000" dur="1.8s"
           calcMode="discrete" fill="freeze"/>
        <animate attributeName="opacity" values="0.9;0.9;0;0.9"
           keyTimes="0;0.5;0.75;1" dur="1s" begin="1.8s" repeatCount="indefinite"/>
      </rect>
    </g>

    <!-- subtitle -->
    <text x="42" y="158" fill="#7d8590" font-size="15"
          font-family="ui-monospace,'SF Mono','JetBrains Mono',Menlo,monospace">
      <tspan fill="#58a6ff">behavior</tspan> + <tspan fill="#e3b341">event</tspan>
      &#8594; reactive UI, no re-renders</text>

    <!-- legend bottom-right -->
    <g font-family="ui-monospace,Menlo,monospace" font-size="11.5" transform="translate(856,276)" text-anchor="end">
      <text fill="#7d8590"><tspan fill="#e3b341">&#9679;</tspan> events &#183; <tspan fill="#58a6ff">&#8764;</tspan> behavior &#183; &lt;8kB</text>
    </g>
  </g>
</svg>